<svg class="svg-icon" style="width: 1em;height: 1em;vertical-align: middle;fill: currentColor;overflow: hidden;" viewBox="0 0 1024 1024" version="1.1" xmlns="http://www.w3.org/2000/svg"><path d="M642.56 946.176h-261.12c-167.936 0-303.616-136.192-303.616-303.616v-261.12c0-167.936 136.192-303.616 303.616-303.616h261.12c167.936 0 303.616 136.192 303.616 303.616v261.12c0 167.424-136.192 303.616-303.616 303.616z" fill="#F2F9FF" /><path d="M651.776 546.304c-67.072 0-121.344 54.272-121.344 121.856 0 67.072 54.272 121.856 121.344 121.856s121.856-54.272 121.856-121.856c0-67.584-54.272-121.856-121.856-121.856z m84.48 72.704h-35.84c-4.096-15.36-9.728-29.696-16.896-43.52 22.528 7.68 40.96 23.552 52.736 43.52z m-83.968-48.128c10.24 14.848 17.92 30.72 23.04 48.128h-46.592c5.12-17.408 13.312-33.792 23.552-48.128zM558.08 692.224c-2.048-7.68-3.072-15.872-3.072-24.576 0-8.192 1.024-16.384 3.072-24.576h40.96c-1.024 8.192-1.536 15.872-1.536 24.576s0.512 16.384 1.536 24.576h-40.96z m9.728 24.064h35.84c4.096 15.36 9.728 29.696 16.896 43.52-22.528-7.68-40.96-23.552-52.736-43.52z m35.84-97.28h-35.84c11.776-19.968 30.208-35.84 52.736-43.52-7.168 13.824-12.8 28.16-16.896 43.52z m48.64 145.408c-10.24-14.848-17.92-30.72-23.04-48.128h46.592c-5.632 17.408-13.824 33.792-23.552 48.128z m28.16-72.192h-56.832c-1.024-8.192-2.048-15.872-2.048-24.576s1.024-16.384 2.048-24.576h56.832c1.024 8.192 2.048 15.872 2.048 24.576s-1.024 16.384-2.048 24.576z m3.072 67.584c7.168-13.312 12.8-28.16 16.896-43.52h35.84c-11.776 19.968-30.208 35.84-52.736 43.52z m21.504-67.584c1.024-8.192 1.536-15.872 1.536-24.576s-0.512-16.384-1.536-24.576h40.96c2.048 7.68 3.072 15.872 3.072 24.576 0 8.192-1.024 16.384-3.072 24.576h-40.96z m0 0" fill="#7686DE" /><path d="M527.872 234.496c-82.944 0-151.552 68.096-151.552 151.552 0 48.128 22.528 90.624 55.808 118.784-105.984 37.888-181.76 141.312-181.76 260.096 0 14.848 10.24 25.088 25.088 25.088 15.36 0 25.088-10.24 25.088-25.088-0.512-60.416 23.552-118.272 66.048-160.768 42.496-42.496 100.352-66.56 160.768-66.048 83.456 0 151.552-68.096 151.552-151.552 0.512-83.968-67.584-152.064-151.04-152.064z m0 252.416c-55.808 0-100.864-45.056-100.864-100.864 0-55.808 45.056-100.864 100.864-100.864 55.808 0 100.864 45.056 100.864 100.864 0 55.296-45.056 100.864-100.864 100.864z" fill="#7686DE" /></svg>