<svg xmlns="http://www.w3.org/2000/svg" viewBox="0 0 500 500"><path d="M261.493 69.219c-29.912 0-53.993 24.08-53.993 53.993v392.014c0 29.912 24.081 53.993 53.993 53.993h392.014c29.912 0 53.993-24.081 53.993-53.994V123.213c0-29.912-24.081-53.993-53.993-53.993H261.493zm76.266 108.774c14.393 0 32.986 10.049 38.695 23.397 7.438-1.73 15.099-2.812 23.06-2.812h123.51c7.96 0 15.621 1.083 23.059 2.812 5.709-13.348 24.301-23.397 38.695-23.397 17.047 0 20.585 13.886 20.585 30.933v31.384c12.785 17.127 20.585 38.195 20.585 61.192v41.17c0 56.85-46.075 102.925-102.925 102.925h-123.51c-56.85 0-102.924-46.075-102.924-102.925v-41.17c0-22.997 7.8-44.065 20.585-61.192v-31.384c0-17.047 3.538-30.933 20.585-30.933zm61.754 123.51c-34.093 0-61.754 27.66-61.754 61.754 0 34.094 27.66 61.755 61.754 61.755h123.51c34.094 0 61.755-27.661 61.755-61.755s-27.661-61.755-61.755-61.755h-123.51zm0 20.584c17.047 0 20.585 13.887 20.585 30.934v10.91c0 17.048-3.538 30.935-20.585 30.935-17.046 0-20.584-13.887-20.584-30.934V353.02c0-17.047 3.538-30.934 20.585-30.934zm123.51 0c17.047 0 20.585 13.887 20.585 30.934v10.91c0 17.048-3.538 30.935-20.585 30.935s-20.585-13.887-20.585-30.934V353.02c0-17.047 3.538-30.934 20.585-30.934z" transform="translate(-207.5 -69.219)" fill="#2887c7" fill-opacity="1" stroke="none" class="fill-000000"></path></svg>