<svg xmlns="http://www.w3.org/2000/svg" version="1.1" xmlns:xlink="http://www.w3.org/1999/xlink" xmlns:svgjs="http://svgjs.dev/svgjs" width="2000" height="1500" viewBox="0 0 2000 1500"><rect width="2000" height="1500" fill="#ffffff"></rect><g transform="matrix(0.44603033006244425,0,0,0.44603033006244425,552.581337312869,250)"><svg viewBox="0 0 321 360" data-background-color="#581381" preserveAspectRatio="xMidYMid meet" height="2242" width="2000" xmlns="http://www.w3.org/2000/svg" xmlns:xlink="http://www.w3.org/1999/xlink"><g id="tight-bounds" transform="matrix(1,0,0,1,0.49957899999992605,0)"><svg viewBox="0 0 320 360" height="360" width="320"><g><svg></svg></g><g><svg viewBox="0 0 320 360" height="360" width="320"><g><path transform="translate(-9.31575,10.66434) scale(0.39811,0.39811)" d="M827.2 486c-0.2-21.2-13.6-38-13.8-59.2-0.1-21.2 13.1-46.8 12.9-68-6.7-20.1-24.7-31.9-31.4-52-6.7-20.1-2.1-48.6-8.7-68.7-12.6-17.1-33.4-22.7-45.9-39.7-12.6-17.1-17-45.6-29.5-62.6-17.2-12.3-38.7-11.3-56-23.6-17.2-12.3-30.2-38.1-47.5-50.4-20.2-6.4-40.3 1.3-60.5-5.2-20.2-6.4-40.5-26.9-60.7-33.3-21.2 0.2-38 13.6-59.2 13.8-21.2 0.1-46.8-13.1-68-12.9-20.1 6.7-31.9 24.7-52 31.4-20.1 6.7-48.6 2.1-68.7 8.8-17.1 12.6-22.7 33.4-39.7 45.9-17.1 12.6-45.6 17-62.6 29.6-12.3 17.2-11.3 38.7-23.6 56-12.3 17.2-38.1 30.2-50.4 47.5-6.4 20.2 1.2 40.3-5.2 60.5-6.4 20.2-26.9 40.5-33.3 60.7 0.1 21.2 13.6 38 13.8 59.2 0.1 21.2-13.1 46.8-12.9 68 6.7 20.1 24.7 31.9 31.4 52 6.7 20.1 2.1 48.6 8.8 68.7 12.6 17.1 33.4 22.7 45.9 39.8 12.6 17.1 17 45.6 29.5 62.6 17.2 12.3 38.7 11.3 56 23.6 17.2 12.3 30.2 38.1 47.5 50.4 20.2 6.4 40.3-1.2 60.5 5.2 20.2 6.4 40.5 26.9 60.7 33.3 21.2-0.2 38-13.6 59.2-13.8 21.2-0.1 46.8 13.1 68 12.9 20.1-6.7 31.9-24.7 52-31.4 20.1-6.7 48.6-2.1 68.7-8.8 17.1-12.6 22.7-33.4 39.8-45.9 17.1-12.6 45.6-17 62.6-29.5 12.3-17.2 11.3-38.7 23.6-56 12.3-17.2 38.1-30.2 50.4-47.5 6.4-20.2-1.2-40.3 5.2-60.5 6.2-20.4 26.7-40.7 33.1-60.9zM792 544.4c-9.1 17.9-31.4 33.8-40.6 51.7-9.1 17.9-5.1 37.9-14.2 55.8-14.2 14.2-40.3 22.4-54.6 36.6-14.2 14.2-16.5 34.5-30.8 48.7-17.9 9.1-45.3 8.8-63.2 18-17.9 9.1-26.4 27.7-44.3 36.8-19.9 3.1-45.8-5.6-65.7-2.5-19.9 3.1-33.7 18.2-53.5 21.3-19.9-3.1-41.8-19.5-61.7-22.6-19.9-3.2-37.6 6.9-57.5 3.7-17.9-9.1-33.8-31.5-51.7-40.6-17.9-9.1-37.9-5.1-55.9-14.2-14.2-14.2-22.4-40.3-36.6-54.6-14.2-14.2-34.5-16.6-48.7-30.8-9.1-17.9-8.8-45.3-18-63.2-9.1-17.9-27.7-26.4-36.8-44.3-3.1-19.9 5.6-45.8 2.5-65.7-3.2-19.9-18.2-33.7-21.3-53.5 3.2-19.9 19.5-41.8 22.6-61.7 3.1-19.9-6.9-37.6-3.7-57.5 9.1-17.9 31.5-33.8 40.6-51.7 9.1-17.9 5.1-37.9 14.2-55.9 14.2-14.2 40.3-22.4 54.6-36.6 14.2-14.2 16.6-34.5 30.8-48.7 17.9-9.1 45.3-8.8 63.2-18 17.9-9.1 26.4-27.7 44.3-36.8 19.9-3.1 45.8 5.6 65.7 2.5 19.9-3.1 33.7-18.2 53.5-21.3 19.9 3.1 41.8 19.5 61.7 22.6 19.9 3.2 37.6-6.9 57.5-3.7 17.9 9.1 33.8 31.5 51.7 40.6 17.9 9.1 37.9 5.1 55.9 14.2 14.2 14.2 22.4 40.3 36.6 54.6 14.2 14.2 34.5 16.6 48.7 30.8 9.1 17.9 8.8 45.3 18 63.2 9.1 17.9 27.7 26.4 36.8 44.3 3.2 19.9-5.6 45.8-2.5 65.7 3.1 19.9 18.2 33.7 21.3 53.5-3.1 19.9-19.5 41.8-22.6 61.7-3.1 19.9 6.9 37.7 3.7 57.6z" fill="#000000" fill-rule="nonzero" stroke="none" stroke-width="1" stroke-linecap="butt" stroke-linejoin="miter" stroke-miterlimit="10" stroke-dasharray="" stroke-dashoffset="0" font-family="none" font-weight="none" font-size="none" text-anchor="none" style="mix-blend-mode: normal" data-fill-palette-color="tertiary"></path></g><g transform="matrix(1,0,0,1,60.999999999999986,80.99999999999999)"><svg viewBox="0 0 198.00000000000003 198.00000000000003" height="198.00000000000003" width="198.00000000000003"><g><svg viewBox="0 0 198.00000000000003 198.00000000000003" height="198.00000000000003" width="198.00000000000003"><g><svg viewBox="0 0 198.00000000000003 198.00000000000003" height="198.00000000000003" width="198.00000000000003"><g id="textblocktransform"><svg viewBox="0 0 198.00000000000003 198.00000000000003" height="198.00000000000003" width="198.00000000000003" id="textblock"><g><svg viewBox="0 0 198.00000000000003 198.00000000000003" height="198.00000000000003" width="198.00000000000003"><g transform="matrix(1,0,0,1,58.582948430450045,52.33095244168788)"><svg viewBox="0 0 80.83410313909994 93.33809511662427" height="93.33809511662427" width="80.83410313909994"><g id="icon-0"><svg xmlns:x="http://ns.adobe.com/Extensibility/1.0/" xmlns:i="http://ns.adobe.com/AdobeIllustrator/10.0/" xmlns:graph="http://ns.adobe.com/Graphs/1.0/" xmlns="http://www.w3.org/2000/svg" xmlns:xlink="http://www.w3.org/1999/xlink" version="1.0" x="0" y="0" viewBox="12.13 6.272 75.74000000000001 87.45599999999999" enable-background="new 0 0 100 100" xml:space="preserve" height="93.33809511662427" width="80.83410313909994" class="icon-jxe-0" data-fill-palette-color="accent" id="jxe-0"><g fill="#fff2ff" data-fill-palette-color="accent"><path d="M50 6.272L12.13 28.137V71.865L50 93.728 87.87 71.865V28.137zM78.438 32.691L51 16.85V9.159L84.898 28.73zM50 59.352L42.79 55.19V46.864L50 42.701 57.209 46.863V55.189zM49 40.968L42.33 44.819 34.428 40.144 49 31.731zM40.79 46.232V54.857L32.79 59.308V41.498zM41.498 56.753L49 61.083V70.321L33.35 61.286zM51 61.083L58.502 56.752 66.65 61.286 51 70.321zM59.209 54.855V46.125L59.523 46.638 67.21 41.924V59.307zM58.479 44.934L58.814 45.481 51 40.969V31.732L65.94 40.357zM49 29.422L32.453 38.975 23.674 33.781 49 19.159zM30.79 40.315V60.422L22.79 64.873V35.582zM31.313 62.42L49 72.63V80.842L24.071 66.449zM51 72.63L68.687 62.419 75.93 66.449 51 80.842zM69.21 60.421V40.698L77.21 35.791V64.872zM67.879 39.168L51 29.423V19.159L76.5 33.881zM49 16.849L21.699 32.612 15.12 28.719 49 9.159zM20.79 34.398V65.986L14.13 69.691V30.458zM22.034 67.583L49 83.15V90.841L15.251 71.357zM51 83.15L77.966 67.582 84.749 71.357 51 90.842zM79.21 65.985V34.564L85.87 30.479V69.691z" fill="#000000" data-fill-palette-color="accent"></path></g></svg><g></g></g></svg></g><g id="text-0"><path d="M21.893 68.914v0c-0.502-0.235-0.953-0.44-1.351-0.614-0.395-0.166-0.789-0.324-1.183-0.475v0c-0.393-0.151-0.78-0.292-1.159-0.424-0.382-0.126-0.771-0.233-1.167-0.322v0l-1.646 2.108-0.882-0.677c0.271-0.594 0.552-1.245 0.844-1.951 0.295-0.712 0.593-1.462 0.895-2.248v0c0.26-0.676 0.503-1.337 0.73-1.984 0.225-0.64 0.443-1.29 0.654-1.949v0l1.13 0.032-0.181 2.649c0.419 0.175 0.847 0.357 1.282 0.546 0.429 0.186 0.881 0.36 1.355 0.52v0c0.535 0.205 1.102 0.399 1.703 0.58 0.594 0.179 1.236 0.39 1.926 0.634v0c-0.079 1.162-0.183 2.321-0.31 3.478-0.129 1.163-0.473 2.471-1.03 3.921v0c-0.619 1.61-1.401 2.886-2.348 3.828-0.945 0.935-1.976 1.59-3.093 1.965-1.115 0.369-2.268 0.515-3.459 0.438-1.191-0.077-2.352-0.332-3.483-0.766v0c-1.18-0.453-2.252-1.069-3.215-1.849-0.963-0.779-1.74-1.705-2.329-2.778-0.598-1.069-0.93-2.279-0.997-3.631-0.069-1.345 0.2-2.808 0.807-4.387v0c0.432-1.125 0.944-2.173 1.536-3.145 0.586-0.974 1.337-1.902 2.254-2.784v0c0.755 0.495 1.505 0.976 2.249 1.445 0.741 0.475 1.507 0.935 2.295 1.379v0l-0.69 1.798-3.746-0.825c-0.687 0.724-1.245 1.433-1.675 2.129-0.429 0.696-0.844 1.563-1.242 2.601v0c0.335 1.257 1.013 2.35 2.031 3.278 1.022 0.921 2.319 1.684 3.893 2.288v0c0.965 0.371 1.947 0.642 2.946 0.814 1.007 0.168 1.959 0.206 2.856 0.113 0.899-0.099 1.687-0.361 2.364-0.785 0.68-0.43 1.178-1.057 1.495-1.88v0c0.205-0.535 0.292-1.045 0.259-1.53-0.026-0.483-0.132-0.996-0.318-1.54z" fill="#000000" data-fill-palette-color="primary"></path><path d="M20.881 50.18v0c0.373 0.235 0.817 0.502 1.331 0.8 0.514 0.298 0.986 0.569 1.418 0.812 0.426 0.239 0.71 0.407 0.852 0.502v0l5.526 3.483 2.178-1.963 0.648 0.948c-0.2 0.262-0.452 0.612-0.755 1.052-0.312 0.441-0.631 0.897-0.957 1.368-0.335 0.473-0.629 0.898-0.883 1.275v0c-0.335 0.497-0.685 1.035-1.051 1.614-0.37 0.585-0.706 1.12-1.01 1.606v0l-1.127-0.235 0.802-2.27c-0.716-0.482-1.355-0.912-1.917-1.291-0.563-0.379-1.18-0.794-1.852-1.246v0c-0.366-0.246-0.706-0.467-1.018-0.663-0.315-0.204-0.672-0.429-1.071-0.673-0.404-0.248-0.907-0.539-1.508-0.872v0l-1.355 1.445-1.228-0.351c0.226-0.372 0.534-0.875 0.922-1.51 0.379-0.634 0.755-1.298 1.127-1.992 0.378-0.69 0.687-1.304 0.928-1.839zM22.978 46.96v0c0.302-0.448 0.666-0.806 1.092-1.075 0.421-0.272 0.933-0.46 1.534-0.563v0c0.414 0.422 0.771 0.789 1.069 1.101 0.294 0.317 0.576 0.642 0.845 0.974 0.274 0.335 0.609 0.74 1.005 1.212v0l-0.899 1.336c-0.663-0.288-1.287-0.47-1.871-0.546-0.58-0.081-1.073 0.008-1.478 0.267v0c-0.012 0.572 0.207 1.267 0.656 2.085 0.455 0.822 1.253 1.617 2.394 2.386v0l-2.005 0.008c-0.806-0.725-1.46-1.522-1.961-2.393-0.502-0.87-0.799-1.725-0.892-2.565-0.097-0.835 0.074-1.578 0.511-2.227z" fill="#000000" data-fill-palette-color="primary"></path><path d="M31.551 36.904v0c0.666-0.693 1.432-1.186 2.297-1.478 0.87-0.297 1.782-0.324 2.736-0.082 0.95 0.237 1.888 0.801 2.814 1.69v0c-0.235 0.359-0.568 0.805-1 1.34-0.441 0.535-0.935 1.111-1.481 1.727-0.551 0.612-1.114 1.217-1.689 1.815v0c-0.424 0.442-0.796 0.815-1.117 1.119-0.32 0.304-0.539 0.504-0.658 0.6v0l-0.99-0.951c0.146-0.152 0.37-0.385 0.67-0.698 0.297-0.309 0.625-0.664 0.985-1.068 0.355-0.398 0.694-0.794 1.017-1.186 0.323-0.393 0.586-0.734 0.79-1.022v0c-0.308-0.269-0.68-0.471-1.116-0.606-0.436-0.145-0.895-0.171-1.377-0.078-0.492 0.094-0.957 0.368-1.395 0.824v0c-0.003 0.526 0.148 1.096 0.453 1.71 0.301 0.609 0.755 1.205 1.363 1.789v0c1.244 1.195 2.409 1.817 3.495 1.865 1.091 0.043 2.001-0.315 2.731-1.074v0c0.744-0.774 1.248-1.855 1.514-3.244v0l1.392 0.461c-0.029 1.114-0.253 2.122-0.673 3.024-0.415 0.898-0.942 1.679-1.581 2.344v0c-0.744 0.774-1.606 1.334-2.586 1.679-0.98 0.346-2.006 0.396-3.077 0.152-1.067-0.24-2.105-0.845-3.117-1.816v0c-1.021-0.981-1.67-2.011-1.948-3.091-0.278-1.08-0.268-2.121 0.029-3.123 0.297-1.002 0.803-1.876 1.519-2.622z" fill="#000000" data-fill-palette-color="primary"></path><path d="M43.408 26.668v0c0.772-0.573 1.608-0.932 2.51-1.077 0.907-0.149 1.811-0.025 2.712 0.372 0.898 0.391 1.729 1.102 2.495 2.133v0c-0.291 0.315-0.694 0.7-1.208 1.156-0.524 0.455-1.106 0.94-1.747 1.458-0.645 0.512-1.3 1.015-1.967 1.51v0c-0.492 0.365-0.92 0.671-1.286 0.918-0.366 0.247-0.616 0.408-0.749 0.483v0l-0.819-1.102c0.169-0.126 0.428-0.318 0.777-0.577 0.344-0.255 0.726-0.552 1.148-0.89 0.416-0.334 0.816-0.668 1.2-1.002 0.383-0.334 0.7-0.626 0.948-0.877v0c-0.259-0.316-0.593-0.577-1-0.782-0.406-0.215-0.855-0.317-1.346-0.305-0.5 0.011-1.004 0.205-1.511 0.582v0c-0.091 0.518-0.036 1.105 0.163 1.761 0.196 0.65 0.545 1.313 1.048 1.99v0c1.029 1.385 2.075 2.191 3.138 2.418 1.068 0.223 2.025 0.021 2.871-0.607v0c0.862-0.64 1.538-1.623 2.03-2.948v0l1.297 0.686c-0.213 1.093-0.601 2.05-1.165 2.87-0.558 0.817-1.207 1.5-1.947 2.05v0c-0.862 0.64-1.804 1.049-2.829 1.227-1.024 0.178-2.044 0.058-3.06-0.359-1.012-0.413-1.936-1.182-2.772-2.308v0c-0.844-1.136-1.314-2.26-1.409-3.371-0.095-1.111 0.087-2.136 0.545-3.075 0.459-0.94 1.103-1.717 1.933-2.334z" fill="#000000" data-fill-palette-color="primary"></path><path d="M61.55 16.591v0c0.989-0.466 1.974-0.476 2.956-0.029 0.982 0.447 1.787 1.243 2.415 2.388v0c0.167 0.307 0.399 0.799 0.695 1.474 0.297 0.675 0.623 1.406 0.98 2.191 0.362 0.783 0.698 1.502 1.006 2.157v0l2.205-0.373 0.044 1.158c-0.469 0.178-0.991 0.399-1.566 0.662-0.577 0.258-1.143 0.517-1.697 0.779v0c-0.679 0.32-1.282 0.616-1.809 0.886-0.528 0.271-1.013 0.522-1.458 0.753v0l-0.795-0.804 1.646-1.443c-0.26-0.598-0.477-1.104-0.65-1.517-0.182-0.417-0.362-0.83-0.542-1.24-0.185-0.408-0.417-0.884-0.696-1.43v0c-0.512-1.054-1.066-1.736-1.663-2.044-0.594-0.317-1.281-0.386-2.063-0.206v0c-0.526 0.86-0.789 1.737-0.789 2.633-0.003 0.889 0.156 1.659 0.477 2.308v0l-1.495-0.693c-0.347-1.045-0.467-2.07-0.358-3.074 0.108-1.005 0.431-1.903 0.967-2.695 0.537-0.792 1.266-1.405 2.19-1.841zM57.248 18.468v0c0.27 0.572 0.487 1.033 0.653 1.384 0.169 0.357 0.334 0.716 0.496 1.076 0.154 0.357 0.355 0.837 0.604 1.441v0l2.955 6.01 2.16-0.352 0.115 1.124c-0.606 0.242-1.17 0.483-1.691 0.722-0.53 0.235-1.104 0.499-1.723 0.791v0c-0.679 0.32-1.261 0.606-1.747 0.857-0.486 0.251-0.975 0.503-1.467 0.757v0l-0.875-0.767 1.69-1.463c-0.261-0.554-0.546-1.22-0.855-1.999-0.312-0.77-0.629-1.494-0.949-2.173v0c-0.236-0.5-0.437-0.919-0.603-1.256-0.169-0.328-0.36-0.671-0.573-1.029-0.213-0.358-0.494-0.823-0.843-1.393v0l-2.263 0.456-0.777-0.835c0.999-0.537 1.929-1.066 2.789-1.589 0.866-0.525 1.834-1.113 2.904-1.762z" fill="#000000" data-fill-palette-color="primary"></path><path d="M81.045 23.019v0l-0.514-1.039 2.43-0.923c-0.173-1.638-0.343-3.202-0.51-4.695-0.162-1.5-0.337-2.981-0.527-4.443v0c-0.153-1.175-0.303-2.258-0.452-3.248-0.148-0.983-0.315-1.964-0.502-2.943v0l-2.596-0.36 0.139-1.153c0.612-0.04 1.272-0.096 1.98-0.168 0.708-0.072 1.499-0.165 2.374-0.278v0c0.855-0.111 1.731-0.245 2.627-0.401 0.896-0.156 1.723-0.284 2.48-0.382v0c1.273-0.165 2.323-0.083 3.15 0.248 0.826 0.324 1.456 0.804 1.89 1.438 0.427 0.628 0.69 1.321 0.788 2.079v0c0.114 0.875-0.044 1.709-0.472 2.501-0.429 0.786-1.076 1.454-1.941 2.005-0.866 0.544-1.899 0.894-3.1 1.05v0c0.078-0.01 0.014 0.005-0.194 0.045-0.208 0.034-0.465 0.077-0.77 0.13-0.3 0.046-0.554 0.082-0.762 0.109v0c-0.157 0.02-0.373 0.045-0.648 0.075-0.276 0.023-0.54 0.037-0.791 0.043-0.252 0-0.426-0.011-0.522-0.032v0l-0.182-1.401c0.6 0.022 1.113 0.028 1.536 0.02 0.424-0.009 0.864-0.043 1.321-0.102v0c0.34-0.044 0.558-0.073 0.657-0.085 0.091-0.012 0.173-0.026 0.243-0.042 0.064-0.022 0.208-0.057 0.435-0.106v0c0.47-0.367 0.793-0.847 0.968-1.441 0.175-0.594 0.223-1.194 0.144-1.801v0c-0.106-0.816-0.414-1.526-0.924-2.131-0.516-0.597-1.231-0.836-2.145-0.718v0c-0.281 0.036-0.53 0.089-0.746 0.157-0.21 0.067-0.414 0.16-0.611 0.279v0c0.17 1.312 0.319 2.505 0.444 3.577 0.133 1.078 0.234 1.932 0.303 2.56 0.075 0.628 0.112 0.942 0.112 0.942v0c0.148 1.143 0.275 2.116 0.379 2.919 0.105 0.81 0.195 1.505 0.271 2.086 0.075 0.575 0.146 1.1 0.215 1.576 0.075 0.475 0.154 0.959 0.238 1.453v0l-0.018 0.55c-0.068 0.089-0.104 0.199-0.106 0.332 0.004 0.132-0.037 0.274-0.124 0.425-0.088 0.144-0.269 0.277-0.546 0.399-0.276 0.122-0.71 0.212-1.299 0.269v0c-0.858 0.092-1.611 0.196-2.26 0.313-0.656 0.112-1.277 0.216-1.862 0.312zM90.001 21.885v0c-0.666 0.086-1.344 0.155-2.035 0.205-0.691 0.05-1.624 0.151-2.8 0.304v0c-0.039 0.005 0.023-0.076 0.188-0.244 0.158-0.16 0.347-0.367 0.567-0.621 0.22-0.248 0.428-0.49 0.622-0.728 0.188-0.237 0.303-0.428 0.344-0.573v0c0.632 0.11 1.174 0.173 1.628 0.187 0.459 0.007 0.897-0.017 1.315-0.071v0c1.069-0.411 1.79-0.989 2.165-1.735 0.375-0.746 0.511-1.507 0.411-2.285v0c-0.086-0.666-0.326-1.286-0.72-1.858-0.394-0.58-0.93-1.028-1.609-1.345-0.679-0.317-1.501-0.413-2.467-0.287v0c-0.209 0.027-0.569 0.094-1.08 0.2-0.511 0.106-1.139 0.254-1.884 0.444v0l-0.024-1.332c0.598-0.151 1.231-0.289 1.898-0.416 0.667-0.127 1.269-0.225 1.805-0.294v0c1.521-0.198 2.873-0.194 4.055 0.011 1.188 0.204 2.155 0.643 2.9 1.317 0.745 0.673 1.2 1.647 1.365 2.92v0c0.126 0.973-0.02 1.888-0.44 2.746-0.421 0.851-1.139 1.585-2.154 2.202-1.009 0.616-2.359 1.033-4.05 1.253z" fill="#000000" data-fill-palette-color="primary"></path><path d="M107.231 0v0c-0.216 3.252-0.419 6.565-0.608 9.937-0.197 3.379-0.36 6.637-0.491 9.776v0l2.232 0.738-0.607 1.032c-0.347-0.041-0.668-0.073-0.964-0.097-0.295-0.031-0.649-0.062-1.063-0.094-0.407-0.038-0.965-0.078-1.674-0.121v0c-0.631-0.038-1.154-0.063-1.569-0.075-0.408-0.018-0.777-0.03-1.106-0.037-0.322-0.013-0.685-0.021-1.087-0.025v0l-0.478-1.098 2.294-0.465c0.163-2.042 0.315-4.14 0.458-6.295 0.136-2.149 0.25-4.203 0.342-6.164 0.086-1.967 0.137-3.689 0.153-5.166v0l-2.441-0.542-0.228-1.142c0.443-0.013 1.04-0.016 1.792-0.011 0.745 0.012 1.566 0.005 2.465-0.02 0.892-0.025 1.752-0.069 2.58-0.131z" fill="#000000" data-fill-palette-color="primary"></path><path d="M115.701 23.604v0c-1.173-0.276-1.995-0.893-2.467-1.849-0.478-0.958-0.582-2.21-0.312-3.757v0c0.116-0.663 0.287-1.475 0.513-2.437 0.226-0.961 0.521-2.167 0.883-3.617v0l-1.918-0.777-0.067-1.223c1.083 0.255 2.162 0.469 3.238 0.641 1.069 0.171 2.077 0.3 3.024 0.388v0c-0.241 0.85-0.468 1.628-0.682 2.336-0.22 0.706-0.417 1.427-0.591 2.164-0.174 0.737-0.346 1.596-0.516 2.577v0c-0.198 1.097-0.12 1.903 0.232 2.419 0.346 0.514 0.733 0.822 1.162 0.923v0c0.471 0.01 0.963-0.196 1.475-0.616 0.512-0.421 0.976-0.971 1.393-1.651 0.417-0.68 0.711-1.382 0.882-2.105v0l0.171 2.546c-0.331 0.889-0.822 1.68-1.472 2.373-0.657 0.691-1.412 1.196-2.265 1.516-0.853 0.32-1.748 0.37-2.683 0.149zM120.484 24.234v0c0.112-0.562 0.221-1.166 0.325-1.811 0.105-0.645 0.251-1.409 0.438-2.291v0l1.293-6.22-1.939-0.813-0.067-1.223c1.102 0.26 2.175 0.472 3.219 0.637 1.044 0.165 2.045 0.292 3.004 0.383v0c0 0-0.054 0.214-0.161 0.642-0.114 0.426-0.249 0.956-0.405 1.589-0.156 0.633-0.317 1.258-0.482 1.875-0.167 0.624-0.308 1.149-0.422 1.575-0.108 0.428-0.161 0.642-0.162 0.642v0c-0.13 0.639-0.239 1.246-0.327 1.82-0.09 0.581-0.214 1.384-0.375 2.408v0l1.958 1.08-0.773 0.914c-0.478-0.153-0.925-0.279-1.342-0.377-0.423-0.1-0.961-0.226-1.615-0.381v0c-0.276-0.065-0.64-0.141-1.093-0.227-0.453-0.086-0.811-0.161-1.074-0.222z" fill="#000000" data-fill-palette-color="primary"></path><path d="M138.464 17.279v0c0.877 0.394 1.598 0.949 2.164 1.666 0.572 0.719 0.905 1.569 0.998 2.55 0.096 0.975-0.119 2.047-0.645 3.218v0c-0.417-0.101-0.95-0.264-1.599-0.491-0.652-0.235-1.36-0.507-2.124-0.814-0.761-0.313-1.521-0.64-2.278-0.981v0c-0.559-0.251-1.035-0.476-1.429-0.675-0.394-0.199-0.656-0.338-0.786-0.418v0l0.562-1.252c0.192 0.086 0.486 0.219 0.883 0.396 0.39 0.175 0.836 0.365 1.337 0.569 0.495 0.201 0.981 0.387 1.459 0.558 0.479 0.172 0.888 0.305 1.228 0.401v0c0.149-0.38 0.215-0.799 0.196-1.255-0.01-0.459-0.14-0.9-0.39-1.323-0.254-0.432-0.669-0.777-1.246-1.037v0c-0.497 0.174-0.983 0.508-1.457 1.002-0.472 0.488-0.881 1.116-1.226 1.885v0c-0.707 1.573-0.901 2.88-0.582 3.919 0.326 1.042 0.969 1.778 1.931 2.21v0c0.979 0.44 2.167 0.552 3.563 0.335v0l0.034 1.467c-1.058 0.347-2.083 0.475-3.074 0.383-0.985-0.089-1.898-0.323-2.739-0.701v0c-0.979-0.44-1.796-1.064-2.451-1.871-0.655-0.807-1.048-1.756-1.178-2.847-0.133-1.085 0.088-2.267 0.662-3.546v0c0.58-1.291 1.332-2.249 2.256-2.873 0.923-0.625 1.907-0.966 2.951-1.024 1.044-0.058 2.037 0.125 2.98 0.549z" fill="#000000" data-fill-palette-color="primary"></path><path d="M165.134 28.104v0l-0.495 1.089-2.175-1.276c-0.673 1.192-1.268 2.271-1.786 3.237-0.513 0.971-0.985 1.895-1.416 2.771-0.426 0.881-0.842 1.785-1.248 2.713-0.407 0.927-0.849 1.949-1.328 3.063v0l-4.412 2.721-1.09-1.061c0.857-1.674 1.635-3.214 2.333-4.62 0.698-1.406 1.35-2.752 1.957-4.036 0.611-1.279 1.218-2.568 1.82-3.866 0.606-1.293 1.237-2.664 1.893-4.112v0l-1.392-2.195 1.075-0.524c0.44 0.511 0.87 0.975 1.29 1.393 0.415 0.423 0.961 0.962 1.636 1.619v0c0.661 0.643 1.255 1.208 1.783 1.694 0.528 0.486 1.047 0.95 1.555 1.39zM168.758 31.631l1.154 1.123-3.717 3.04c-1.67 0.782-3.241 1.508-4.713 2.18-1.467 0.667-2.938 1.353-4.414 2.057-1.471 0.709-3.069 1.506-4.794 2.391v0l1.452-2.639c1.87-0.854 3.597-1.69 5.184-2.508 1.591-0.822 3.174-1.684 4.749-2.585 1.571-0.906 3.271-1.925 5.099-3.059zM168.758 31.631l1.154 1.123c-0.739 1.505-1.375 2.833-1.909 3.986-0.534 1.153-1.01 2.232-1.43 3.239-0.419 1.007-0.843 2.046-1.271 3.119-0.423 1.067-0.898 2.268-1.424 3.602v0l-3.937 1.779-1.34 0.06c0.71-1.579 1.322-2.972 1.836-4.181 0.524-1.208 0.998-2.314 1.422-3.316 0.429-0.998 0.844-1.99 1.245-2.978 0.401-0.988 0.817-2.062 1.248-3.223v0zM178.625 41.234v0l-0.517 1.068-2.189-1.29c-1.295 0.614-2.542 1.224-3.74 1.832-1.198 0.617-2.425 1.26-3.683 1.929-1.257 0.678-2.598 1.413-4.021 2.205-1.428 0.788-3.023 1.661-4.784 2.621v0l-1.09-1.06 3.183-2.237c1.897-0.882 3.918-1.944 6.061-3.183 2.144-1.24 4.16-2.599 6.049-4.077v0l-1.49-2.292 1.068-0.531c0.453 0.469 0.9 0.94 1.339 1.414 0.439 0.464 0.885 0.917 1.339 1.357v0c0.481 0.468 0.918 0.875 1.308 1.219 0.391 0.335 0.78 0.676 1.167 1.025z" fill="#000000" data-fill-palette-color="primary"></path><path d="M180.086 54.81v0c0.499 0.822 0.778 1.688 0.838 2.599 0.063 0.917-0.145 1.805-0.624 2.666-0.473 0.857-1.259 1.619-2.356 2.285v0c-0.286-0.319-0.632-0.756-1.039-1.311-0.404-0.564-0.833-1.189-1.288-1.875-0.45-0.69-0.889-1.39-1.32-2.099v0c-0.318-0.524-0.583-0.979-0.794-1.366-0.212-0.387-0.349-0.651-0.411-0.791v0l1.174-0.712c0.109 0.18 0.277 0.456 0.502 0.827 0.222 0.366 0.482 0.774 0.779 1.226 0.294 0.446 0.589 0.875 0.885 1.288 0.297 0.413 0.558 0.755 0.784 1.026v0c0.339-0.229 0.63-0.536 0.873-0.922 0.252-0.384 0.395-0.821 0.429-1.312 0.036-0.499-0.11-1.019-0.438-1.559v0c-0.508-0.139-1.097-0.139-1.768-0.002-0.666 0.134-1.359 0.42-2.08 0.858v0c-1.475 0.895-2.375 1.861-2.7 2.898-0.322 1.043-0.21 2.014 0.336 2.915v0c0.557 0.918 1.472 1.683 2.746 2.297v0l-0.804 1.227c-1.069-0.314-1.985-0.79-2.749-1.428-0.761-0.632-1.38-1.342-1.859-2.13v0c-0.557-0.918-0.876-1.894-0.958-2.931-0.082-1.036 0.133-2.041 0.643-3.013 0.506-0.969 1.358-1.818 2.557-2.545v0c1.21-0.734 2.373-1.097 3.488-1.088 1.115 0.009 2.118 0.286 3.01 0.83 0.893 0.544 1.607 1.258 2.144 2.142z" fill="#000000" data-fill-palette-color="primary"></path><path d="M195.247 66.306v0c-0.507 0.167-1.026 0.35-1.557 0.547-0.531 0.197-1.055 0.392-1.573 0.586v0c-0.938 0.349-1.781 0.669-2.53 0.961-0.751 0.286-1.497 0.574-2.239 0.865-0.744 0.284-1.583 0.599-2.515 0.945v0c-0.376 0.14-0.91 0.339-1.601 0.596-0.691 0.257-1.423 0.529-2.194 0.816-0.778 0.289-1.495 0.56-2.154 0.811-0.662 0.26-1.153 0.45-1.474 0.569v0l-0.739-0.399c-0.302-0.113-0.659-0.261-1.071-0.445-0.406-0.186-0.818-0.377-1.236-0.573v0l-0.619-1.666c0.483-0.137 1.104-0.337 1.864-0.599 0.76-0.261 1.593-0.554 2.498-0.876 0.902-0.314 1.815-0.636 2.739-0.966 0.916-0.333 1.78-0.644 2.593-0.932 0.811-0.294 1.503-0.548 2.077-0.762v0c1.062-0.395 2.076-0.803 3.042-1.227 0.969-0.417 2.041-0.917 3.215-1.5v0l-0.447-2.279 1.064-0.68c0.133 0.302 0.308 0.714 0.524 1.238 0.21 0.526 0.455 1.092 0.736 1.697 0.277 0.613 0.556 1.212 0.837 1.796 0.272 0.58 0.525 1.073 0.76 1.477zM188.319 73.15v0c0.367 0.987 0.399 1.913 0.095 2.778-0.301 0.871-0.822 1.644-1.561 2.32-0.739 0.675-1.594 1.193-2.563 1.553v0c-1.024 0.381-2.081 0.553-3.17 0.515-1.089-0.038-2.076-0.331-2.961-0.88-0.892-0.547-1.554-1.403-1.988-2.569v0c-0.367-0.987-0.409-1.959-0.125-2.915 0.278-0.953 0.749-1.859 1.413-2.717v0l1.391 0.284c-0.468 0.497-0.837 1.074-1.107 1.728-0.272 0.649-0.254 1.387 0.054 2.214v0c0.181 0.488 0.52 0.832 1.017 1.034 0.49 0.204 1.069 0.287 1.737 0.25 0.659-0.041 1.309-0.181 1.951-0.42v0c0.648-0.241 1.247-0.566 1.798-0.974 0.554-0.417 0.981-0.885 1.28-1.404 0.299-0.519 0.382-1.059 0.251-1.621v0c-0.293-0.523-0.897-0.871-1.811-1.044-0.914-0.173-2.026-0.016-3.334 0.471v0l2.053-1.649c0.764-0.08 1.513-0.039 2.248 0.123 0.737 0.168 1.401 0.491 1.993 0.966 0.585 0.478 1.032 1.13 1.339 1.957z" fill="#000000" data-fill-palette-color="primary"></path><path d="M2.753 103.506c0-4.518 3.662-8.18 8.181-8.18 4.518 0 8.18 3.662 8.18 8.18 0 4.518-3.662 8.18-8.18 8.18-4.518 0-8.18-3.662-8.181-8.18z" fill="#000000" data-fill-palette-color="primary"></path><path d="M178.76 103.506c0-4.518 3.662-8.18 8.181-8.18 4.518 0 8.18 3.662 8.18 8.18 0 4.518-3.662 8.18-8.18 8.18-4.518 0-8.18-3.662-8.181-8.18z" fill="#000000" data-fill-palette-color="primary"></path></g><g id="text-1"><path d="M15.647 140.497v0c0.53-0.161 1.002-0.311 1.415-0.449 0.404-0.141 0.803-0.287 1.197-0.438v0c0.393-0.151 0.775-0.305 1.145-0.461 0.368-0.162 0.729-0.343 1.083-0.543v0l-0.189-2.668 1.109-0.087c0.197 0.623 0.423 1.294 0.678 2.014 0.258 0.726 0.538 1.483 0.84 2.27v0c0.26 0.676 0.522 1.33 0.786 1.962 0.262 0.626 0.535 1.255 0.819 1.886v0l-0.861 0.733-1.638-2.09c-0.429 0.151-0.868 0.302-1.318 0.453-0.444 0.149-0.895 0.323-1.355 0.521v0c-0.535 0.205-1.086 0.442-1.654 0.709-0.561 0.265-1.179 0.538-1.854 0.818v0c-0.719-0.916-1.418-1.846-2.099-2.791-0.683-0.951-1.303-2.152-1.86-3.603v0c-0.619-1.61-0.891-3.082-0.817-4.415 0.076-1.327 0.403-2.504 0.982-3.53 0.581-1.02 1.34-1.901 2.276-2.641 0.936-0.74 1.969-1.328 3.1-1.762v0c1.18-0.453 2.389-0.713 3.627-0.779 1.237-0.066 2.434 0.102 3.59 0.504 1.16 0.394 2.217 1.071 3.17 2.03 0.952 0.953 1.731 2.22 2.338 3.8v0c0.432 1.125 0.753 2.246 0.964 3.365 0.217 1.116 0.28 2.308 0.189 3.577v0c-0.892 0.138-1.771 0.282-2.638 0.431-0.869 0.143-1.745 0.314-2.628 0.513v0l-0.69-1.798 3.335-1.895c0.026-0.997-0.034-1.898-0.181-2.702-0.147-0.804-0.419-1.726-0.819-2.765v0c-1.091-0.71-2.325-1.068-3.703-1.075-1.376-0.001-2.85 0.301-4.424 0.906v0c-0.965 0.371-1.876 0.826-2.733 1.367-0.861 0.549-1.593 1.159-2.197 1.828-0.601 0.675-1.012 1.397-1.232 2.166-0.217 0.775-0.168 1.574 0.149 2.397v0c0.205 0.535 0.482 0.971 0.831 1.311 0.343 0.341 0.765 0.651 1.268 0.931z" fill="#000000" data-fill-palette-color="secondary"></path><path d="M31.586 149.625v0c-0.359 0.257-0.773 0.568-1.242 0.931-0.469 0.364-0.898 0.7-1.285 1.009-0.382 0.305-0.644 0.505-0.787 0.601v0l-5.305 3.81 0.999 2.756-1.122 0.244c-0.167-0.284-0.397-0.649-0.69-1.096-0.291-0.455-0.593-0.922-0.907-1.401-0.313-0.488-0.596-0.92-0.85-1.297v0c-0.335-0.497-0.701-1.024-1.1-1.581-0.403-0.562-0.772-1.076-1.109-1.54v0l0.642-0.956 1.802 1.597c0.716-0.482 1.355-0.912 1.917-1.291 0.563-0.379 1.18-0.794 1.852-1.247v0c0.366-0.246 0.698-0.478 0.996-0.695 0.308-0.215 0.65-0.461 1.027-0.738 0.382-0.281 0.841-0.638 1.376-1.07v0l-0.83-1.798 0.787-1.006c0.259 0.349 0.61 0.824 1.053 1.422 0.445 0.59 0.919 1.187 1.421 1.793 0.498 0.61 0.949 1.127 1.355 1.553zM33.781 152.779v0c0.302 0.448 0.496 0.92 0.585 1.416 0.094 0.493 0.075 1.037-0.056 1.633v0c-0.547 0.225-1.021 0.417-1.422 0.576-0.405 0.153-0.811 0.292-1.219 0.417-0.414 0.128-0.915 0.286-1.502 0.475v0l-0.899-1.336c0.516-0.506 0.919-1.016 1.209-1.528 0.294-0.507 0.396-0.997 0.308-1.47v0c-0.525-0.226-1.251-0.285-2.178-0.176-0.933 0.112-1.97 0.552-3.112 1.321v0l0.748-1.861c0.975-0.474 1.96-0.78 2.954-0.917 0.995-0.138 1.899-0.092 2.713 0.138 0.81 0.225 1.434 0.662 1.871 1.312z" fill="#000000" data-fill-palette-color="secondary"></path><path d="M40.985 161.043v0c0.666 0.693 1.128 1.478 1.385 2.354 0.262 0.881 0.253 1.793-0.027 2.737-0.275 0.94-0.875 1.855-1.801 2.745v0c-0.349-0.249-0.782-0.6-1.299-1.053-0.517-0.462-1.073-0.978-1.666-1.549-0.589-0.575-1.171-1.162-1.747-1.76v0c-0.424-0.442-0.782-0.828-1.073-1.16-0.291-0.332-0.482-0.559-0.573-0.682v0l0.99-0.952c0.146 0.152 0.37 0.385 0.67 0.698 0.297 0.309 0.639 0.651 1.028 1.027 0.384 0.371 0.766 0.725 1.145 1.063 0.38 0.338 0.71 0.615 0.989 0.83v0c0.281-0.297 0.497-0.661 0.651-1.09 0.162-0.43 0.206-0.888 0.132-1.374-0.074-0.495-0.33-0.971-0.768-1.426v0c-0.526-0.024-1.101 0.104-1.726 0.385-0.62 0.276-1.234 0.707-1.842 1.29v0c-1.244 1.195-1.912 2.335-2.003 3.418-0.087 1.088 0.235 2.012 0.964 2.771v0c0.744 0.774 1.804 1.321 3.181 1.642v0l-0.516 1.373c-1.112-0.073-2.11-0.338-2.995-0.793-0.88-0.451-1.64-1.008-2.279-1.673v0c-0.744-0.774-1.269-1.658-1.575-2.651-0.306-0.993-0.316-2.02-0.029-3.081 0.282-1.056 0.928-2.07 1.94-3.042v0c1.021-0.981 2.076-1.589 3.165-1.823 1.09-0.234 2.13-0.183 3.12 0.153 0.99 0.336 1.843 0.877 2.559 1.623z" fill="#000000" data-fill-palette-color="secondary"></path><path d="M51.21 169.842v0c0.772 0.573 1.357 1.271 1.755 2.091 0.404 0.825 0.547 1.727 0.428 2.705-0.115 0.972-0.556 1.974-1.322 3.004v0c-0.385-0.188-0.871-0.462-1.456-0.823-0.586-0.37-1.22-0.787-1.9-1.251-0.676-0.47-1.348-0.952-2.013-1.447v0c-0.492-0.365-0.909-0.687-1.251-0.966-0.342-0.279-0.568-0.471-0.678-0.578v0l0.818-1.102c0.169 0.126 0.428 0.318 0.777 0.578 0.344 0.255 0.738 0.536 1.183 0.842 0.44 0.302 0.875 0.589 1.306 0.859 0.431 0.271 0.802 0.489 1.113 0.654v0c0.228-0.339 0.381-0.734 0.461-1.183 0.089-0.451 0.056-0.91-0.097-1.376-0.155-0.476-0.486-0.902-0.994-1.28v0c-0.523 0.063-1.069 0.285-1.638 0.666-0.566 0.375-1.1 0.901-1.603 1.577v0c-1.029 1.385-1.499 2.619-1.409 3.703 0.095 1.087 0.565 1.945 1.41 2.573v0c0.862 0.64 1.998 1.004 3.409 1.093v0l-0.282 1.439c-1.108 0.112-2.137 0.016-3.085-0.286-0.943-0.299-1.784-0.723-2.524-1.273v0c-0.862-0.64-1.526-1.425-1.992-2.353-0.466-0.929-0.646-1.94-0.54-3.034 0.103-1.088 0.573-2.195 1.409-3.321v0c0.844-1.136 1.784-1.91 2.82-2.322 1.036-0.412 2.07-0.534 3.102-0.366 1.032 0.168 1.963 0.56 2.793 1.177z" fill="#000000" data-fill-palette-color="secondary"></path><path d="M67.081 178.695v0c0.989 0.466 1.623 1.221 1.903 2.263 0.28 1.042 0.178 2.17-0.307 3.383v0c-0.131 0.324-0.363 0.815-0.696 1.474-0.332 0.659-0.689 1.375-1.068 2.149-0.374 0.777-0.715 1.494-1.025 2.149v0l1.691 1.463-0.866 0.771c-0.436-0.249-0.938-0.512-1.507-0.787-0.566-0.282-1.126-0.553-1.68-0.814v0c-0.679-0.32-1.291-0.598-1.835-0.833-0.544-0.235-1.047-0.45-1.508-0.646v0l0.116-1.125 2.159 0.353c0.296-0.581 0.548-1.07 0.758-1.467 0.206-0.405 0.41-0.808 0.613-1.207 0.197-0.402 0.417-0.884 0.66-1.446v0c0.488-1.066 0.661-1.927 0.52-2.584-0.133-0.66-0.517-1.234-1.153-1.723v0c-0.998 0.141-1.843 0.496-2.534 1.066-0.688 0.564-1.181 1.176-1.478 1.836v0l-0.416-1.594c0.585-0.932 1.3-1.676 2.145-2.232 0.844-0.555 1.743-0.878 2.695-0.967 0.952-0.09 1.89 0.083 2.813 0.518zM62.897 176.569v0c-0.27 0.572-0.487 1.033-0.653 1.384-0.169 0.357-0.34 0.713-0.515 1.068-0.178 0.346-0.42 0.806-0.728 1.382v0l-2.759 6.103 1.646 1.442-0.795 0.805c-0.573-0.314-1.117-0.596-1.632-0.846-0.518-0.259-1.087-0.535-1.707-0.827v0c-0.679-0.32-1.27-0.588-1.772-0.804-0.503-0.215-1.008-0.432-1.517-0.65v0l0.035-1.163 2.205 0.374c0.261-0.554 0.594-1.198 0.998-1.931 0.396-0.731 0.754-1.435 1.074-2.115v0c0.236-0.5 0.431-0.921 0.585-1.263 0.145-0.339 0.289-0.705 0.43-1.097 0.141-0.392 0.321-0.904 0.539-1.537v0l-1.792-1.457 0.151-1.13c1.05 0.43 2.049 0.81 3 1.142 0.956 0.335 2.025 0.708 3.207 1.12z" fill="#000000" data-fill-palette-color="secondary"></path><path d="M79.493 195.936v0l-0.231-1.135 2.585-0.272c0.251-1.627 0.487-3.184 0.706-4.669 0.227-1.491 0.435-2.968 0.626-4.431v0c0.153-1.175 0.284-2.261 0.393-3.255 0.108-0.989 0.197-1.98 0.266-2.973v0l-2.418-1.012 0.429-1.079c0.602 0.118 1.255 0.233 1.957 0.344 0.703 0.111 1.491 0.224 2.367 0.337v0c0.855 0.111 1.736 0.206 2.642 0.283 0.906 0.078 1.738 0.166 2.496 0.265v0c1.273 0.165 2.267 0.514 2.981 1.044 0.715 0.524 1.202 1.149 1.46 1.873 0.252 0.717 0.329 1.454 0.231 2.211v0c-0.114 0.875-0.479 1.641-1.095 2.298-0.616 0.65-1.412 1.131-2.389 1.443-0.976 0.305-2.064 0.379-3.266 0.223v0c0.078 0.01 0.012 0.008-0.198-0.006-0.21-0.021-0.469-0.044-0.778-0.071-0.301-0.032-0.556-0.062-0.765-0.09v0c-0.157-0.02-0.372-0.052-0.645-0.093-0.273-0.049-0.531-0.102-0.776-0.161-0.244-0.065-0.409-0.12-0.497-0.164v0l0.182-1.401c0.575 0.174 1.068 0.311 1.481 0.412 0.412 0.1 0.846 0.18 1.303 0.239v0c0.34 0.044 0.558 0.073 0.656 0.085 0.091 0.012 0.173 0.019 0.247 0.022 0.067-0.005 0.216-0.002 0.447 0.008v0c0.548-0.234 0.983-0.616 1.304-1.145 0.321-0.529 0.521-1.098 0.6-1.705v0c0.106-0.816-0.01-1.582-0.35-2.296-0.346-0.709-0.976-1.123-1.89-1.242v0c-0.281-0.036-0.535-0.05-0.762-0.039-0.221 0.011-0.441 0.049-0.662 0.113v0c-0.17 1.312-0.332 2.503-0.484 3.573-0.146 1.077-0.267 1.927-0.361 2.552-0.088 0.626-0.132 0.939-0.132 0.939v0c-0.148 1.143-0.275 2.116-0.379 2.919-0.105 0.81-0.195 1.505-0.271 2.086-0.075 0.575-0.14 1.101-0.195 1.579-0.049 0.478-0.096 0.967-0.141 1.465v0l-0.158 0.528c-0.089 0.068-0.151 0.166-0.187 0.294-0.03 0.129-0.106 0.255-0.229 0.379-0.121 0.117-0.331 0.199-0.63 0.247-0.298 0.048-0.74 0.023-1.325-0.073v0c-0.853-0.131-1.608-0.222-2.265-0.274-0.663-0.06-1.289-0.118-1.88-0.175zM88.442 197.128v0c-0.666-0.086-1.339-0.194-2.02-0.322-0.681-0.128-1.608-0.269-2.784-0.421v0c-0.039-0.005 0.042-0.068 0.244-0.187 0.194-0.114 0.43-0.266 0.706-0.456 0.276-0.183 0.539-0.365 0.788-0.546 0.243-0.181 0.402-0.336 0.479-0.465v0c0.583 0.268 1.091 0.467 1.526 0.596 0.442 0.124 0.872 0.213 1.29 0.268v0c1.138-0.124 1.984-0.499 2.536-1.125 0.553-0.625 0.879-1.327 0.981-2.104v0c0.086-0.666 0.013-1.326-0.221-1.981-0.233-0.661-0.637-1.231-1.212-1.711-0.575-0.48-1.346-0.782-2.312-0.908v0c-0.209-0.027-0.574-0.055-1.095-0.082-0.521-0.028-1.166-0.045-1.935-0.052v0l0.317-1.294c0.617 0.007 1.264 0.035 1.941 0.083 0.678 0.048 1.284 0.107 1.82 0.177v0c1.521 0.198 2.827 0.546 3.917 1.046 1.097 0.501 1.919 1.172 2.468 2.014 0.548 0.841 0.739 1.899 0.574 3.172v0c-0.126 0.973-0.502 1.821-1.127 2.543-0.624 0.716-1.506 1.242-2.645 1.579-1.133 0.338-2.545 0.397-4.236 0.176z" fill="#000000" data-fill-palette-color="secondary"></path><path d="M105.38 176.286v0c0.176 3.255 0.373 6.567 0.589 9.938 0.21 3.378 0.439 6.633 0.687 9.764v0l2.304 0.465-0.478 1.097c-0.35 0.001-0.672 0.008-0.969 0.019-0.297 0.005-0.652 0.016-1.066 0.035-0.408 0.011-0.967 0.039-1.678 0.081v0c-0.631 0.038-1.153 0.076-1.566 0.114-0.407 0.031-0.775 0.063-1.102 0.096-0.322 0.026-0.682 0.061-1.082 0.105v0l-0.607-1.032 2.222-0.738c-0.084-2.046-0.184-4.148-0.301-6.304-0.123-2.15-0.257-4.203-0.401-6.16-0.151-1.963-0.307-3.679-0.469-5.147v0l-2.488-0.246-0.364-1.106c0.438-0.066 1.03-0.141 1.778-0.226 0.741-0.078 1.556-0.183 2.445-0.315 0.883-0.132 1.731-0.279 2.546-0.44z" fill="#000000" data-fill-palette-color="secondary"></path><path d="M118.684 196.072v0c-1.173 0.276-2.184 0.092-3.032-0.553-0.855-0.644-1.507-1.718-1.957-3.223v0c-0.192-0.645-0.402-1.448-0.628-2.409-0.226-0.961-0.501-2.172-0.825-3.631v0l-2.063 0.161-0.606-1.065c1.083-0.255 2.144-0.546 3.184-0.871 1.033-0.325 1.993-0.659 2.879-1.003v0c0.164 0.868 0.308 1.666 0.432 2.394 0.118 0.73 0.264 1.463 0.437 2.2 0.174 0.737 0.403 1.583 0.689 2.537v0c0.313 1.07 0.742 1.757 1.287 2.061 0.539 0.306 1.023 0.408 1.453 0.307v0c0.426-0.202 0.774-0.605 1.044-1.21 0.27-0.605 0.44-1.304 0.51-2.098 0.07-0.794 0.02-1.554-0.151-2.278v0l1.29 2.202c0.101 0.944 0.014 1.87-0.258 2.78-0.279 0.911-0.729 1.701-1.35 2.368-0.621 0.667-1.399 1.111-2.335 1.331zM123.245 194.501v0c-0.151-0.553-0.323-1.142-0.517-1.766-0.194-0.624-0.405-1.373-0.631-2.246v0l-1.619-6.143-2.098 0.139-0.606-1.065c1.102-0.26 2.157-0.549 3.164-0.867 1.007-0.319 1.961-0.651 2.86-0.998v0c0 0 0.047 0.215 0.142 0.646 0.088 0.432 0.204 0.967 0.347 1.603 0.143 0.636 0.278 1.267 0.405 1.893 0.129 0.633 0.237 1.165 0.326 1.598 0.095 0.431 0.142 0.646 0.142 0.646v0c0.169 0.63 0.342 1.222 0.52 1.775 0.179 0.56 0.426 1.334 0.74 2.322v0l2.234 0.093-0.284 1.162c-0.496 0.076-0.953 0.164-1.37 0.262-0.423 0.1-0.961 0.226-1.615 0.381v0c-0.276 0.065-0.635 0.16-1.079 0.284-0.444 0.125-0.798 0.218-1.061 0.281z" fill="#000000" data-fill-palette-color="secondary"></path><path d="M133.1 177.8v0c0.877-0.394 1.771-0.565 2.682-0.513 0.917 0.05 1.774 0.365 2.569 0.946 0.793 0.575 1.452 1.448 1.979 2.619v0c-0.352 0.245-0.828 0.535-1.428 0.869-0.609 0.332-1.282 0.681-2.02 1.049-0.74 0.361-1.488 0.712-2.244 1.052v0c-0.559 0.251-1.043 0.458-1.454 0.621-0.41 0.163-0.689 0.266-0.835 0.311v0l-0.563-1.252c0.192-0.086 0.486-0.219 0.883-0.397 0.39-0.175 0.828-0.383 1.312-0.623 0.478-0.237 0.941-0.477 1.387-0.72 0.446-0.244 0.818-0.461 1.114-0.653v0c-0.185-0.364-0.455-0.691-0.808-0.979-0.35-0.297-0.767-0.493-1.249-0.587-0.491-0.097-1.025-0.016-1.602 0.244v0c-0.2 0.487-0.273 1.072-0.218 1.755 0.052 0.677 0.25 1.4 0.596 2.168v0c0.707 1.573 1.556 2.585 2.545 3.036 0.995 0.448 1.974 0.456 2.934 0.024v0c0.979-0.44 1.851-1.254 2.617-2.443v0l1.119 0.948c-0.443 1.022-1.028 1.873-1.755 2.553-0.721 0.678-1.501 1.205-2.341 1.584v0c-0.979 0.44-1.988 0.637-3.027 0.591-1.038-0.046-2.009-0.382-2.911-1.008-0.9-0.621-1.637-1.571-2.212-2.85v0c-0.58-1.291-0.798-2.489-0.652-3.595 0.146-1.105 0.543-2.067 1.193-2.886 0.65-0.819 1.446-1.441 2.389-1.864z" fill="#000000" data-fill-palette-color="secondary"></path><path d="M147.068 160.345v0l1.075 0.525-1.335 2.14c1.173 0.705 2.236 1.329 3.188 1.873 0.957 0.539 1.867 1.036 2.732 1.49 0.869 0.449 1.762 0.89 2.678 1.321 0.916 0.431 1.925 0.901 3.026 1.41v0l2.6 4.485-1.09 1.06c-1.65-0.902-3.169-1.722-4.555-2.457-1.387-0.736-2.714-1.424-3.982-2.066-1.262-0.646-2.534-1.287-3.815-1.923-1.276-0.641-2.629-1.309-4.059-2.004v0l-2.232 1.332-0.495-1.089c0.523-0.426 0.999-0.843 1.428-1.252 0.434-0.404 0.988-0.934 1.663-1.591v0c0.661-0.643 1.241-1.222 1.741-1.737 0.501-0.515 0.978-1.02 1.432-1.517zM150.692 156.818l1.153-1.123 2.938 3.798c0.736 1.691 1.42 3.281 2.052 4.77 0.627 1.485 1.273 2.974 1.937 4.469 0.669 1.49 1.422 3.109 2.26 4.857v0l-2.598-1.523c-0.803-1.892-1.592-3.642-2.367-5.25-0.779-1.612-1.598-3.218-2.456-4.818-0.863-1.595-1.836-3.322-2.919-5.18zM150.692 156.818l1.153-1.123c1.484 0.779 2.795 1.451 3.933 2.016 1.138 0.565 2.204 1.071 3.2 1.517 0.995 0.447 2.023 0.898 3.083 1.355 1.056 0.452 2.243 0.959 3.562 1.522v0l1.671 3.983 0.024 1.342c-1.559-0.752-2.935-1.402-4.13-1.949-1.194-0.556-2.286-1.06-3.276-1.511-0.986-0.456-1.967-0.897-2.943-1.325-0.977-0.428-2.039-0.873-3.188-1.336v0zM160.558 147.215v0l1.055 0.546-1.35 2.153c0.578 1.312 1.155 2.574 1.73 3.789 0.584 1.214 1.194 2.458 1.828 3.733 0.644 1.275 1.343 2.635 2.096 4.08 0.749 1.449 1.579 3.067 2.491 4.853v0l-1.09 1.061-2.149-3.242c-0.831-1.92-1.837-3.969-3.018-6.146-1.181-2.177-2.485-4.229-3.912-6.157v0l-2.331 1.428-0.502-1.083c0.481-0.44 0.964-0.874 1.449-1.3 0.476-0.427 0.941-0.86 1.394-1.301v0c0.481-0.468 0.899-0.893 1.253-1.275 0.345-0.382 0.697-0.761 1.056-1.139z" fill="#000000" data-fill-palette-color="secondary"></path><path d="M168.901 145.414v0c0.499-0.822 1.138-1.47 1.919-1.943 0.784-0.479 1.668-0.705 2.652-0.678 0.979 0.024 2.017 0.369 3.115 1.036v0c-0.151 0.401-0.379 0.91-0.683 1.526-0.314 0.618-0.67 1.288-1.069 2.008-0.404 0.717-0.822 1.431-1.252 2.14v0c-0.318 0.524-0.599 0.969-0.846 1.336-0.246 0.367-0.416 0.61-0.511 0.729v0l-1.174-0.712c0.109-0.18 0.277-0.456 0.502-0.828 0.222-0.366 0.465-0.785 0.728-1.256 0.26-0.466 0.504-0.926 0.734-1.381 0.229-0.454 0.412-0.844 0.548-1.169v0c-0.359-0.195-0.766-0.311-1.222-0.348-0.457-0.046-0.911 0.029-1.361 0.225-0.459 0.199-0.853 0.568-1.181 1.109v0c0.111 0.514 0.383 1.037 0.815 1.569 0.426 0.528 1 1.011 1.721 1.448v0c1.475 0.895 2.747 1.247 3.818 1.058 1.074-0.196 1.884-0.744 2.43-1.645v0c0.557-0.918 0.813-2.083 0.77-3.495v0l1.459 0.146c0.215 1.093 0.216 2.126 0.003 3.098-0.209 0.967-0.553 1.844-1.031 2.632v0c-0.557 0.918-1.276 1.652-2.157 2.203-0.881 0.551-1.871 0.825-2.97 0.82-1.093-0.001-2.239-0.365-3.439-1.092v0c-1.21-0.734-2.069-1.598-2.575-2.591-0.507-0.993-0.724-2.011-0.654-3.054 0.071-1.043 0.374-2.006 0.911-2.891z" fill="#000000" data-fill-palette-color="secondary"></path><path d="M166.395 129.977v0c0.493 0.204 1.005 0.405 1.536 0.602 0.531 0.197 1.055 0.392 1.573 0.585v0c0.938 0.349 1.786 0.657 2.544 0.925 0.755 0.274 1.509 0.543 2.26 0.809 0.749 0.272 1.59 0.581 2.521 0.927v0c0.376 0.14 0.91 0.339 1.602 0.596 0.691 0.257 1.423 0.529 2.194 0.816 0.778 0.289 1.498 0.553 2.16 0.792 0.671 0.236 1.167 0.413 1.488 0.533v0l0.298 0.785c0.155 0.282 0.328 0.628 0.521 1.037 0.186 0.406 0.373 0.82 0.561 1.241v0l-0.62 1.666c-0.455-0.211-1.056-0.466-1.802-0.765-0.746-0.298-1.567-0.621-2.464-0.969-0.888-0.351-1.789-0.704-2.704-1.058-0.911-0.346-1.769-0.675-2.573-0.988-0.806-0.307-1.496-0.567-2.07-0.781v0c-1.062-0.395-2.096-0.748-3.104-1.059-1.006-0.318-2.144-0.639-3.414-0.964v0l-1.151 2.017-1.25-0.181c0.096-0.315 0.234-0.742 0.413-1.279 0.185-0.535 0.369-1.124 0.551-1.766 0.191-0.646 0.371-1.281 0.54-1.907 0.173-0.617 0.303-1.155 0.39-1.614zM176.112 129.322v0c0.367-0.987 0.948-1.709 1.743-2.165 0.797-0.462 1.696-0.708 2.697-0.736 1.001-0.028 1.986 0.138 2.955 0.498v0c1.024 0.381 1.937 0.941 2.736 1.682 0.8 0.74 1.355 1.607 1.667 2.601 0.318 0.996 0.26 2.078-0.174 3.244v0c-0.367 0.987-0.97 1.75-1.809 2.288-0.833 0.54-1.782 0.918-2.846 1.134v0l-0.867-1.124c0.68-0.07 1.335-0.266 1.967-0.586 0.63-0.314 1.098-0.884 1.405-1.711v0c0.181-0.488 0.15-0.97-0.094-1.447-0.238-0.475-0.622-0.916-1.151-1.324-0.526-0.399-1.11-0.718-1.752-0.957v0c-0.648-0.241-1.314-0.387-1.998-0.437-0.692-0.047-1.321 0.029-1.886 0.226-0.565 0.197-0.981 0.552-1.249 1.063v0c-0.12 0.588 0.109 1.245 0.689 1.974 0.579 0.728 1.523 1.336 2.831 1.822v0l-2.631-0.093c-0.631-0.438-1.171-0.959-1.621-1.562-0.448-0.609-0.74-1.287-0.878-2.033-0.131-0.744-0.042-1.53 0.266-2.357z" fill="#000000" data-fill-palette-color="secondary"></path></g></svg></g></svg></g></svg></g></svg></g></svg></g></svg></g><defs></defs></svg><rect width="320" height="360" fill="none" stroke="none" visibility="hidden"></rect></g></svg></g></svg>